name analog
datacolumns 19
datarows 23
range 0.33 0.341
endheader
time	ground_force_vx	ground_force_vy	ground_force_vz	ground_force_px	ground_force_py	ground_force_pz	l_ground_force_vx	l_ground_force_vy	l_ground_force_vz	l_ground_force_px	l_ground_force_py	l_ground_force_pz	ground_torque_x	ground_torque_y	ground_torque_z	l_ground_torque_x	l_ground_torque_y	l_ground_torque_z
0.33	-0.0	-0.0	-0.0	-2.2918620109558105	22.28260040283203	-376.2585754394531	8.011548042297363	-20.636842727661133	-368.35498046875	-0.0	-0.0	-0.0	-0.0	-0.0	-0.0	90940.65625	-15322.4462890625	-5083.31591796875
0.3305	-0.0	-0.0	-0.0	-2.7893433570861816	22.13184356689453	-376.1936645507813	7.831524848937988	-20.512710571289062	-368.8813781738281	-0.0	-0.0	-0.0	-0.0	-0.0	-0.0	90948.875	-15716.9306640625	-5192.69384765625
0.331	-0.0	-0.0	-0.0	-2.941114664077759	22.445646286010746	-378.85748291015625	7.880051612854004	-20.461612701416016	-369.2332153320313	-0.0	-0.0	-0.0	-0.0	-0.0	-0.0	91222.7109375	-15721.3125	-5214.96435546875
0.3315	-0.0	-0.0	-0.0	-2.940596103668213	22.5213680267334	-381.8113403320313	7.845153331756592	-20.85148811340332	-370.7068481445313	-0.0	-0.0	-0.0	-0.0	-0.0	-0.0	91636.125	-15653.900390625	-5230.32861328125
0.332	-0.0	-0.0	-0.0	-3.4131383895874023	22.70513343811035	-383.8967895507813	8.103011131286621	-20.93450927734375	-372.5537414550781	-0.0	-0.0	-0.0	-0.0	-0.0	-0.0	91820.90625	-15958.3330078125	-5161.859375
0.3325	-0.0	-0.0	-0.0	-3.937512874603272	23.13221740722656	-383.2114562988281	8.28421688079834	-21.40452003479004	-374.8121643066406	-0.0	-0.0	-0.0	-0.0	-0.0	-0.0	92335.203125	-15924.703125	-5217.8896484375
0.333	-0.0	-0.0	-0.0	-3.705373764038086	23.620630264282227	-385.0950317382813	8.162282943725586	-21.477214813232425	-375.8023071289063	-0.0	-0.0	-0.0	-0.0	-0.0	-0.0	92701.1640625	-15995.107421875	-5225.5595703125
0.3335	-0.0	-0.0	-0.0	-4.155482769012451	23.733705520629883	-386.437255859375	8.126264572143555	-21.725099563598636	-377.3255615234375	-0.0	-0.0	-0.0	-0.0	-0.0	-0.0	93060.6796875	-16131.380859375	-5181.5693359375
0.334	-0.0	-0.0	-0.0	-4.490827560424805	23.856672286987305	-386.6120910644531	8.752296447753906	-22.11185836791992	-377.79388427734375	-0.0	-0.0	-0.0	-0.0	-0.0	-0.0	93827.0	-16213.115234375	-5081.4951171875
0.3345	-0.0	-0.0	-0.0	-4.612423896789551	24.141855239868164	-387.7631530761719	8.33133316040039	-22.309654235839844	-379.7960205078125	-0.0	-0.0	-0.0	-0.0	-0.0	-0.0	93841.1171875	-16318.7626953125	-5225.1923828125
0.335	-0.0	-0.0	-0.0	-4.8779296875	24.13930892944336	-388.8509826660156	8.145242691040039	-22.31677627563477	-381.1648864746094	-0.0	-0.0	-0.0	-0.0	-0.0	-0.0	94358.6796875	-16333.38671875	-5225.73876953125
0.3355	-0.0	-0.0	-0.0	-5.253886222839356	24.29693603515625	-390.2076110839844	7.918341159820557	-22.80837631225586	-382.9625244140625	-0.0	-0.0	-0.0	-0.0	-0.0	-0.0	94806.0859375	-16539.19140625	-5233.60791015625
0.336	-0.0	-0.0	-0.0	-5.53291130065918	24.125247955322266	-391.44232177734375	8.250102996826172	-22.99332618713379	-386.279052734375	-0.0	-0.0	-0.0	-0.0	-0.0	-0.0	95555.140625	-16548.32421875	-5289.89404296875
0.3365	-0.0	-0.0	-0.0	-5.746183395385742	24.60818290710449	-394.2388916015625	8.33177375793457	-23.51589775085449	-387.7962646484375	-0.0	-0.0	-0.0	-0.0	-0.0	-0.0	95981.3828125	-16998.9375	-5327.02880859375
0.337	-0.0	-0.0	-0.0	-5.070529937744141	24.749412536621094	-394.6788330078125	8.235214233398438	-24.067352294921875	-390.41021728515625	-0.0	-0.0	-0.0	-0.0	-0.0	-0.0	96596.515625	-17178.013671875	-5250.8798828125
0.3375	-0.0	-0.0	-0.0	-5.4410247802734375	25.00100517272949	-397.1463928222656	8.028400421142578	-24.376934051513672	-393.11517333984375	-0.0	-0.0	-0.0	-0.0	-0.0	-0.0	97347.1796875	-17523.90234375	-5255.96337890625
0.338	-0.0	-0.0	-0.0	-5.797863006591797	25.22390365600586	-399.6830749511719	7.924905776977539	-25.31858253479004	-395.3563232421875	-0.0	-0.0	-0.0	-0.0	-0.0	-0.0	98352.03125	-17979.27734375	-5360.22412109375
0.3385	-0.0	-0.0	-0.0	-6.237131118774414	25.47628402709961	-401.3302917480469	7.910064697265625	-25.760543823242188	-398.7893676757813	-0.0	-0.0	-0.0	-0.0	-0.0	-0.0	98764.296875	-18057.08203125	-5345.38525390625
0.339	-0.0	-0.0	-0.0	-6.051431655883789	25.7883415222168	-404.80316162109375	8.0877685546875	-26.17267608642578	-400.7669982910156	-0.0	-0.0	-0.0	-0.0	-0.0	-0.0	99558.6640625	-18318.001953125	-5375.05224609375
0.3395	-0.0	-0.0	-0.0	-6.044100761413574	25.810997009277344	-408.8053588867188	7.887945175170898	-26.982540130615234	-403.2709045410156	-0.0	-0.0	-0.0	-0.0	-0.0	-0.0	100392.15625	-18585.25	-5360.3759765625
0.34	-0.0	-0.0	-0.0	-4.995419502258301	26.17511940002441	-410.0404357910156	7.954034805297852	-27.61597442626953	-406.2925109863281	-0.0	-0.0	-0.0	-0.0	-0.0	-0.0	101062.0546875	-18808.697265625	-5459.724609375
0.3405	-0.0	-0.0	-0.0	-5.747231483459473	26.657533645629883	-413.18994140625	7.79893684387207	-27.90219497680664	-409.3767700195313	-0.0	-0.0	-0.0	-0.0	-0.0	-0.0	101932.28125	-19029.98046875	-5563.38623046875
0.341	-0.0	-0.0	-0.0	-5.561448097229004	26.76892471313477	-416.6295776367188	7.644159317016602	-28.468669891357425	-413.8599853515625	-0.0	-0.0	-0.0	-0.0	-0.0	-0.0	102808.7578125	-19367.10546875	-5513.98095703125
